<svg xmlns="http://www.w3.org/2000/svg" viewBox="0 0 24 24" fill="currentColor" class="w-6 h-6">
  <path d="M5.162 3.87a1.5 1.5 0 0 1 .723.723L6.25 5.5h11.5l.365-.908a1.5 1.5 0 0 1 .723-.723L19.5 3.5h-15l-.908.365ZM2.25 7.627V13.5a3 3 0 0 0 3 3h13.5a3 3 0 0 0 3-3V7.627a1.5 1.5 0 0 0-.24-.81l-2.054-3.081A3.75 3.75 0 0 0 16.732 2H7.268a3.75 3.75 0 0 0-3.224 1.736L2.009 6.817a1.5 1.5 0 0 0-.24.81Zm2.625 9.373A1.125 1.125 0 1 0 3.75 18.125a1.125 1.125 0 0 0 1.125-1.125ZM19.125 17A1.125 1.125 0 1 0 18 18.125a1.125 1.125 0 0 0 1.125-1.125Z" />
  <path fill-rule="evenodd" d="M7.508 14.036a.75.75 0 0 1 .742.821l-.503 2.889a.75.75 0 0 1-1.484-.258l.504-2.89a.75.75 0 0 1 .74-.562ZM12 14.25a.75.75 0 0 1 .75.75v2.25a.75.75 0 0 1-1.5 0V15a.75.75 0 0 1 .75-.75Zm3.758.552a.75.75 0 0 1 .74.562l.504 2.89a.75.75 0 0 1-1.484.258l-.504-2.889a.75.75 0 0 1 .742-.821Z" clip-rule="evenodd" />
</svg>