<svg width="113" height="107" viewBox="0 0 113 107" fill="none" xmlns="http://www.w3.org/2000/svg">
<path d="M105.43 57.7002C101.51 57.7002 98.34 54.5202 98.34 50.6102C98.34 37.2602 92.08 24.9202 81.63 17.0302L62.4 50.3402C61.13 52.5302 58.79 53.8902 56.26 53.8902C53.73 53.8902 51.38 52.5402 50.12 50.3402L30.89 17.0302C20.44 24.9102 14.18 37.2602 14.18 50.6102C14.18 54.5302 11 57.7002 7.09 57.7002C3.18 57.7002 0 54.5202 0 50.6102C0 29.6802 11.51 10.6102 30.04 0.820244C33.41 -0.959756 37.59 0.250225 39.49 3.55022L56.27 32.6102L73.05 3.55022C74.96 0.250225 79.13 -0.959756 82.5 0.820244C101.03 10.6002 112.54 29.6802 112.54 50.6102C112.54 54.5302 109.36 57.7002 105.45 57.7002H105.43Z" fill="url(#paint0_linear_61_2)"/>
<path d="M56.25 106.88C31.26 106.88 9.62 90.8202 2.39 66.9202C1.26 63.1702 3.38 59.2102 7.13 58.0802C10.87 56.9402 14.84 59.0702 15.97 62.8102C21.29 80.4102 37.86 92.6903 56.25 92.6903C74.64 92.6903 91.21 80.4002 96.54 62.8102C97.67 59.0602 101.64 56.9402 105.38 58.0802C109.13 59.2102 111.25 63.1702 110.11 66.9202C102.88 90.8202 81.23 106.88 56.25 106.88Z" fill="url(#paint1_linear_61_2)"/>
<defs>
<linearGradient id="paint0_linear_61_2" x1="-0.02" y1="28.8502" x2="112.53" y2="28.8502" gradientUnits="userSpaceOnUse">
<stop offset="0.04" stop-color="#2563EB"/>
<stop offset="0.51" stop-color="#CD84FC"/>
<stop offset="1" stop-color="#25EBD1"/>
</linearGradient>
<linearGradient id="paint1_linear_61_2" x1="2.08" y1="82.3202" x2="110.42" y2="82.3202" gradientUnits="userSpaceOnUse">
<stop offset="0.04" stop-color="#2563EB"/>
<stop offset="0.51" stop-color="#CD84FC"/>
<stop offset="1" stop-color="#25EBD1"/>
</linearGradient>
</defs>
</svg>
